<?xml version="1.0" encoding="iso-8859-1"?>
<!-- Generator: Adobe Illustrator 19.0.0, SVG Export Plug-In . SVG Version: 6.00 Build 0)  -->
<svg version="1.1" id="Layer_1" xmlns="http://www.w3.org/2000/svg" xmlns:xlink="http://www.w3.org/1999/xlink" x="0px" y="0px"
	 viewBox="0 0 512 512" style="enable-background:new 0 0 512 512;" xml:space="preserve">
<path style="fill:#BFA993;" d="M447.297,252.258v-75.028c0-3.094-2.532-5.626-5.626-5.626h-56.264c-3.095,0-5.626,2.532-5.626,5.626
	v-16.879c0-37.288-30.228-67.516-67.516-67.516H199.736c-37.288,0-67.516,30.228-67.516,67.516v16.879
	c0-3.094-2.532-5.626-5.626-5.626H70.33c-3.095,0-5.626,2.532-5.626,5.626v75.028C31.718,265.615,8.44,297.936,8.44,335.712
	s23.279,70.097,56.264,83.454v-50.637c0,3.095,2.532,5.626,5.626,5.626h56.264c3.094,0,5.626-2.532,5.626-5.626v-28.132h247.56
	v28.132c0,3.095,2.532,5.626,5.626,5.626h56.264c3.095,0,5.626-2.532,5.626-5.626v50.637c32.985-13.357,56.264-45.677,56.264-83.454
	S480.282,265.615,447.297,252.258z"/>
<path style="fill:#EBE4DD;" d="M126.593,171.604H70.33c-3.095,0-5.626,2.532-5.626,5.626v75.028
	C31.718,265.615,8.44,297.936,8.44,335.712s23.279,70.097,56.264,83.454v-50.637c0,3.095,2.532,5.626,5.626,5.626h56.264
	c3.094,0,5.626-2.532,5.626-5.626V177.232C132.22,174.136,129.688,171.604,126.593,171.604z"/>
<g>
	<path style="fill:#B29A7E;" d="M447.297,252.258v-75.028c0-3.094-2.532-5.626-5.626-5.626h-56.264
		c-3.095,0-5.626,2.532-5.626,5.626v191.297c0,3.095,2.532,5.626,5.626,5.626h56.264c3.095,0,5.626-2.532,5.626-5.626v50.637
		c32.985-13.357,56.264-45.677,56.264-83.454S480.282,265.615,447.297,252.258z"/>
	<path style="fill:#B29A7E;" d="M379.78,340.396H132.22V160.352c0-37.288,30.228-67.516,67.516-67.516h112.527
		c37.288,0,67.516,30.228,67.516,67.516V340.396z"/>
</g>
<path style="fill:#A58868;" d="M326.6,94.376c5.209,9.575,8.17,20.551,8.17,32.218v180.044H132.22v33.758h247.56V160.352
	C379.78,127.984,356.999,100.951,326.6,94.376z"/>
<path style="fill:#D8CCBC;" d="M70.33,374.154h56.264c3.094,0,5.626-2.532,5.626-5.626V177.231c0-3.094-2.532-5.626-5.626-5.626
	H70.33c-3.095,0-5.626,2.532-5.626,5.626v191.297C64.703,371.622,67.235,374.154,70.33,374.154z"/>
<path style="fill:#A58868;" d="M447.297,252.258c32.985,13.357,56.264,45.677,56.264,83.454s-23.279,70.097-56.264,83.454V252.258z"
	/>
<path style="fill:#2E2D31;" d="M487.379,270.599c-3.084-3.495-8.418-3.825-11.912-0.74c-3.494,3.086-3.825,8.419-0.74,11.912
	c13.151,14.894,20.394,34.051,20.394,53.941c0,29.017-15.108,55.232-39.385,69.838V252.258v-75.028
	c0-7.757-6.309-14.066-14.066-14.066h-28.132c-4.661,0-8.44,3.778-8.44,8.44s3.779,8.44,8.44,8.44h25.319v72.215v113.456H388.22
	V160.352c0-41.883-34.073-75.956-75.956-75.956H199.736c-41.883,0-75.956,34.073-75.956,75.956v2.813H70.33
	c-7.757,0-14.066,6.309-14.066,14.066v69.536C21.905,263.032,0,297.334,0,335.712c0,40.311,24.154,76.138,61.536,91.274
	c1.021,0.414,2.096,0.618,3.168,0.618c1.658,0,3.304-0.488,4.717-1.44c2.327-1.57,3.722-4.193,3.722-6.999v-36.571h53.451
	c7.757,0,14.066-6.309,14.066-14.066v-19.692h230.681v19.692c0,7.757,6.309,14.066,14.066,14.066h53.451v36.571
	c0,2.806,1.395,5.429,3.724,6.999c1.414,0.953,3.06,1.44,4.717,1.44c1.07,0,2.146-0.204,3.167-0.618
	C487.846,411.851,512,376.023,512,335.712C512,311.704,503.256,288.579,487.379,270.599z M56.264,405.549
	c-24.277-14.605-39.385-40.819-39.385-69.838c0-29.017,15.108-55.233,39.385-69.838V405.549z M123.78,365.714H73.143v-185.67h50.637
	v160.352V365.714z M140.659,331.956V160.352c0-32.574,26.501-59.077,59.077-59.077h112.527c32.576,0,59.077,26.502,59.077,59.077
	v16.879v154.725H140.659z"/>
<g>
</g>
<g>
</g>
<g>
</g>
<g>
</g>
<g>
</g>
<g>
</g>
<g>
</g>
<g>
</g>
<g>
</g>
<g>
</g>
<g>
</g>
<g>
</g>
<g>
</g>
<g>
</g>
<g>
</g>
</svg>
